<svg width="1510" height="893" viewBox="0 0 1510 893" fill="none" xmlns="http://www.w3.org/2000/svg">
<path fill-rule="evenodd" clip-rule="evenodd" d="M298.506 346.899L287.599 337.189L285.178 335.021C279.034 329.495 275.297 325.921 271.823 322.181L271.058 321.348C258.689 307.74 252.679 293.77 246.74 264.456L246.298 262.246L245.853 259.964C239.472 226.633 219.593 200.729 193.92 189.186C169.143 178.047 143.278 182.329 126.353 201.581C110.604 219.494 109.025 246.306 118.61 278.161C125.513 301.102 138.524 325.93 148.014 337.721L148.326 338.105C152.758 343.544 154.722 353.8 156.993 377.727L159.061 400.38L159.415 404.074C160.118 411.315 160.808 417.714 161.583 424.037C163.888 442.834 166.804 459.562 170.791 475.434C171.492 478.223 172.224 480.974 172.988 483.687C173.437 485.282 172.508 486.939 170.913 487.388C169.318 487.837 167.661 486.908 167.212 485.313C166.433 482.545 165.687 479.739 164.972 476.895C161.041 461.246 158.14 444.82 155.842 426.491L155.628 424.767C154.846 418.391 154.151 411.945 153.443 404.659L152.701 396.75C152.153 390.751 151.339 381.707 151.158 379.767L150.898 377.031C148.827 355.633 146.925 345.885 143.678 341.9C133.661 329.657 120.069 303.831 112.865 279.889C102.744 246.257 104.443 217.415 121.847 197.619C140.595 176.293 169.303 171.54 196.38 183.714C223.867 196.072 245.003 223.615 251.746 258.833C251.966 259.977 252.185 261.093 252.402 262.183L252.62 263.265C258.479 292.184 264.181 305.137 276.219 318.098L277.207 319.149C280.627 322.743 284.561 326.431 291.115 332.284L302.511 342.431L304.855 344.539C308.317 347.661 311.553 350.628 314.848 353.708C316.059 354.84 316.123 356.738 314.991 357.949C313.86 359.159 311.962 359.223 310.751 358.092L308.578 356.069C305.321 353.05 302.058 350.083 298.506 346.899Z" fill="#2E186A"/>
<path fill-rule="evenodd" clip-rule="evenodd" d="M159.002 227.461C160.404 226.579 162.256 227 163.139 228.402L165.86 232.771L169.217 238.218C170.113 239.679 171.052 241.213 172.032 242.82L173.532 245.284C181.789 258.867 190.989 274.322 200.896 291.367C229.202 340.066 257.507 391.756 283.928 444.194C299.315 474.733 313.621 504.676 326.638 533.775C327.315 535.287 326.637 537.062 325.125 537.738C323.613 538.415 321.838 537.737 321.161 536.225C308.184 507.214 293.917 477.353 278.57 446.894C252.85 395.847 225.335 345.5 197.776 297.943L195.709 294.382C186.421 278.403 177.758 263.826 169.913 250.885L167.401 246.751C165.421 243.5 163.603 240.536 161.959 237.872L158.061 231.598C157.178 230.196 157.6 228.344 159.002 227.461Z" fill="#2E186A"/>
<path fill-rule="evenodd" clip-rule="evenodd" d="M359.987 131.331C376.146 100.171 402.269 84.7205 439.687 88.3137C472.67 91.4805 491.546 107.247 497.281 133.408C501.948 154.701 497.769 182.205 486.519 213.969L485.822 215.919C480.756 229.943 482.619 243.244 490.623 257.378L491.032 258.094C497.062 268.549 504.583 277.323 520.941 294.2L528.255 301.743L530.012 303.575C539.761 313.776 545.963 320.999 551.098 328.54C557.999 338.673 561.929 348.24 562.69 357.957C563.669 369.996 561.596 381.82 556.791 394.001C556.183 395.542 554.441 396.299 552.899 395.691C551.358 395.083 550.601 393.34 551.21 391.799C555.695 380.429 557.61 369.508 556.709 358.434C556.039 349.875 552.497 341.254 546.139 331.917L545.556 331.07C540.555 323.87 534.341 316.737 524.515 306.51L514.938 296.623C499.022 280.129 491.624 271.323 485.402 260.335C476.587 244.767 474.472 229.677 480.179 213.881C491.602 182.26 495.89 155.084 491.42 134.692C486.259 111.149 469.572 97.2106 439.113 94.2863C404.222 90.9357 380.382 105.036 365.313 134.094C353.05 157.741 347.096 189.971 345.598 230.112L345.501 232.882C345.151 243.584 345.154 252.717 345.39 266.92L345.553 276.69C345.778 292.077 345.628 298.349 344.763 306.094L344.73 306.389C343.417 317.963 340.454 327.47 334.991 336.681C330.751 343.829 324.956 350.844 317.186 358.199L316.451 358.889C308.216 366.606 304.687 375.116 304.965 384.98C305.199 393.22 307.98 402.184 313.409 413.704L313.752 414.427C315.058 417.169 316.347 419.743 318.214 423.352L323.08 432.697C328.027 442.249 330.03 446.514 332.203 452.242C335.688 461.429 337.044 469.253 335.968 476.441L335.881 476.995C335.178 481.293 332.41 495.273 332.172 496.569C328.537 516.31 327.049 534.169 328.295 555.727C328.391 557.381 327.127 558.799 325.473 558.895C323.819 558.991 322.401 557.727 322.305 556.073C321.055 534.447 322.493 516.429 326.041 496.742L326.385 494.883C327.005 491.666 329.581 478.598 330.033 475.556C330.911 469.694 329.805 463.031 326.831 455.006L326.382 453.819C324.175 448.074 321.989 443.573 316.138 432.352L313.113 426.549C311.092 422.651 309.728 419.931 308.335 417.008C302.352 404.449 299.234 394.574 298.968 385.149C298.64 373.572 302.857 363.405 312.352 354.508C320.102 347.266 325.768 340.469 329.83 333.62C334.836 325.18 337.547 316.484 338.768 305.713L338.95 304.032C339.637 297.276 339.757 291.069 339.56 277.268L339.335 263.467C339.139 249.991 339.187 241.024 339.602 229.888C341.13 188.939 347.227 155.937 359.987 131.331Z" fill="#2E186A"/>
<path fill-rule="evenodd" clip-rule="evenodd" d="M410.043 117.852C411.56 118.355 412.407 119.951 411.998 121.475L411.532 122.943L411.168 124.113C410.998 124.666 410.817 125.26 410.625 125.896L410.331 126.882C409.032 131.252 407.583 136.437 406.022 142.413L405.413 144.762C401.149 161.334 396.896 180.542 392.913 202.232C382.914 256.68 376.215 317.796 374.345 384.673C371.985 469.07 377.514 557.419 392.461 648.816C392.728 650.451 391.619 651.993 389.984 652.261C388.349 652.528 386.807 651.419 386.539 649.784C371.529 558.002 365.977 469.273 368.347 384.505C370.226 317.311 376.959 255.891 387.011 201.149L387.586 198.047C391.621 176.452 395.918 157.351 400.217 140.896L400.711 139.015C401.939 134.377 403.094 130.235 404.158 126.6L404.579 125.172C404.888 124.135 405.173 123.192 405.435 122.344L406.078 120.294L406.252 119.757C406.773 118.184 408.471 117.331 410.043 117.852Z" fill="#2E186A"/>
<path fill-rule="evenodd" clip-rule="evenodd" d="M109.723 591.983L97.6642 574.653C87.304 559.864 81.7436 553.29 77.8308 551.645L77.6966 551.59C65.2677 546.674 44.6594 533.349 29.4621 518.791C8.03145 498.263 -2.78871 476.373 1.6606 454.599C6.45939 431.116 25.4755 415.717 50.3445 413.487C75.5446 411.228 102.441 422.751 122.085 445.857C134 459.871 142.222 467.689 150.289 472.69C156.775 476.712 163.266 479.098 174.118 481.702L175.575 482.041C179.732 482.975 198.406 487.097 206.108 488.982C221.668 492.791 237.616 497.377 256.057 503.557C289.875 514.94 320.899 541.221 349.622 579.938C372.552 610.846 392.989 648.11 412.439 691.677C413.115 693.19 412.436 694.964 410.923 695.639C409.41 696.315 407.636 695.636 406.96 694.123C387.673 650.922 367.433 614.017 344.803 583.512C316.746 545.694 286.624 520.176 254.147 509.245C236.886 503.461 221.844 499.089 207.252 495.446L204.133 494.676C195.453 492.574 174.863 488.046 173.434 487.707L171.976 487.357C160.986 484.681 154.095 482.11 147.127 477.79C138.826 472.643 130.594 464.942 119.192 451.704L117.514 449.743C99.1087 428.095 74.1021 417.381 50.8802 419.463C28.5418 421.466 11.7819 435.038 7.53912 455.801C3.58988 475.127 13.5158 495.208 33.6126 514.459C48.0664 528.304 67.6934 541.053 79.4492 545.828L79.9032 546.01C85.2708 548.133 90.8031 554.497 101.471 569.634L115.955 590.421L118.19 593.592C124.671 602.703 130.564 610.568 136.618 618.06C156.553 642.727 176.608 661.165 198.739 673.268C212.417 680.748 225.229 683.823 237.992 683.405C247.411 683.096 255.713 681.157 267.349 677.116L269.277 676.438C270.898 675.86 275.387 674.243 276.599 673.815L277.723 673.421C280.09 672.597 282.035 671.963 283.889 671.42C289.289 669.84 293.697 669.131 297.824 669.358C307.61 669.895 315.256 675.813 321.815 688.533L322.041 688.977L322.221 689.294C322.548 689.864 322.862 690.355 323.196 690.822L323.4 691.1C324.394 692.425 324.125 694.306 322.8 695.3C321.474 696.294 319.594 696.025 318.6 694.7C318.036 693.948 317.536 693.182 317.031 692.305L316.777 691.857L316.218 690.774C310.649 680.176 304.821 675.751 297.495 675.349C294.156 675.166 290.377 675.773 285.574 677.179L284.759 677.422C283.107 677.923 281.319 678.517 279.148 679.279L270.961 682.208C257.937 686.821 248.786 689.054 238.189 689.401C224.35 689.856 210.477 686.525 195.86 678.532C172.94 665.998 152.338 647.056 131.952 621.831C126.346 614.894 120.886 607.655 114.996 599.443L111.822 594.976C111.194 594.084 110.483 593.07 109.723 591.983Z" fill="#2E186A"/>
<path fill-rule="evenodd" clip-rule="evenodd" d="M36.2442 450.114C36.8993 448.592 38.664 447.889 40.1859 448.544L41.2804 449.021C41.9504 449.315 42.7105 449.651 43.5583 450.029L46.4317 451.318C49.17 452.554 52.2125 453.949 55.5398 455.498L56.3776 455.889C69.2256 461.888 83.5387 468.891 98.9512 476.837C142.988 499.537 187.025 525.236 228.142 553.428C292.543 597.585 343.663 643.7 376.562 690.987C377.509 692.347 377.173 694.216 375.813 695.163C374.453 696.109 372.583 695.773 371.637 694.413C339.22 647.82 288.604 602.158 224.749 558.376C183.858 530.339 140.031 504.763 96.202 482.17L93.1486 480.601C79.9819 473.856 67.6577 467.819 56.4145 462.532L53.8393 461.326C49.6487 459.369 45.9003 457.654 42.632 456.187L39.56 454.82L37.8137 454.056C36.2918 453.401 35.5892 451.636 36.2442 450.114Z" fill="#2E186A"/>
<path fill-rule="evenodd" clip-rule="evenodd" d="M608.401 601.398C609.254 600.26 610.825 599.858 612.142 600.517C613.624 601.258 614.224 603.06 613.484 604.542C613.345 604.819 613.183 605.056 613 605.272L612.909 605.377L612.818 605.472L612.784 605.521L612.665 605.668C607.046 612.135 601.173 617.48 595.025 621.808C585.023 628.85 574.491 633.105 562.893 635.315L561.987 635.484C554.198 636.91 547.822 637.292 535.54 637.438L532.289 637.476C518.589 637.663 513.143 638.347 507.926 641.059C501.243 644.533 497.326 651.511 495.881 664.336C495.872 664.417 495.86 664.498 495.844 664.578C493.73 675.351 491.201 685.087 488.243 693.859C487.714 695.429 486.012 696.272 484.442 695.743C482.872 695.213 482.028 693.511 482.558 691.941C485.308 683.784 487.685 674.735 489.696 664.732L489.933 663.54L489.99 663.057C491.682 648.972 496.477 640.42 504.8 635.926L505.159 635.736L505.687 635.466C511.848 632.393 517.875 631.672 532.153 631.477L537.456 631.412C548.554 631.244 554.431 630.819 561.77 629.421C572.561 627.365 582.297 623.431 591.571 616.902C597.077 613.026 602.37 608.257 607.471 602.49L608.009 601.875L608.067 601.794L608.201 601.628C608.268 601.549 608.318 601.493 608.378 601.431L608.401 601.398Z" fill="#2E186A"/>
<path fill-rule="evenodd" clip-rule="evenodd" d="M660.247 284.556C686.045 277.507 710.871 285.851 724.446 307.612C737.034 327.791 734.358 353.819 720.514 382.468C710.688 402.803 694.959 423.929 684.304 433.533C682.215 435.408 680.015 439.905 677.6 447.291L677.435 447.799C675.073 455.124 665.224 493.665 662.484 503.226C662.028 504.819 660.367 505.74 658.774 505.284C657.181 504.828 656.26 503.166 656.716 501.574L657.173 499.952C660.38 488.383 669.416 453.118 671.725 445.957L672.088 444.846C674.686 437.012 677.139 432.029 680.085 429.261L681.011 428.412C691.074 419.033 705.843 399.038 715.112 379.857C728.152 352.871 730.622 328.849 719.355 310.788C707.25 291.384 685.176 283.964 661.829 290.344C637.826 296.903 616.782 316.774 606.236 345.065L605.278 347.68C594.855 376.009 587.212 387.761 572.511 398.892C571.19 399.892 569.309 399.632 568.309 398.311C567.308 396.99 567.569 395.108 568.889 394.108L569.718 393.474C582.707 383.419 589.66 372.599 599.354 346.404L600.28 343.876C611.371 313.33 634.086 291.705 660.247 284.556Z" fill="#2E186A"/>
<path fill-rule="evenodd" clip-rule="evenodd" d="M508.712 435.291C510.042 434.304 511.921 434.581 512.909 435.912C513.897 437.242 513.619 439.121 512.288 440.109L510.046 441.785C504.872 445.679 499.146 450.167 490.785 456.834C464.228 478.271 444.404 511.568 430.393 555.033C418.804 590.983 411.554 632.526 407.489 679.558C407.346 681.209 405.893 682.432 404.242 682.289C402.591 682.146 401.369 680.692 401.511 679.042C405.612 631.597 412.936 589.632 424.682 553.192C439.022 508.708 459.427 474.436 487.03 452.155L491.67 448.464C498.769 442.834 503.844 438.905 508.712 435.291Z" fill="#2E186A"/>
<path fill-rule="evenodd" clip-rule="evenodd" d="M559.513 457.983C560.516 456.665 562.398 456.409 563.717 457.413C565.035 458.416 565.29 460.299 564.287 461.617C521.011 518.474 486.439 574.138 463.756 626.885C463.101 628.407 461.337 629.111 459.815 628.456C458.293 627.801 457.589 626.037 458.244 624.515C481.146 571.257 515.964 515.199 559.513 457.983Z" fill="#2E186A"/>
<path fill-rule="evenodd" clip-rule="evenodd" d="M684.528 316.13C685.726 314.986 687.625 315.03 688.769 316.228C689.87 317.38 689.872 319.18 688.805 320.334L686.259 322.81C685.52 323.531 684.723 324.315 683.868 325.16L682.082 326.929C676.761 332.219 670.713 338.37 664.052 345.314C645.016 365.161 624.893 387.38 604.593 411.435C603.524 412.701 601.631 412.861 600.365 411.793C599.099 410.724 598.939 408.831 600.007 407.565C619.858 384.043 639.538 362.271 658.211 342.74L659.722 341.161C665.859 334.763 671.48 329.033 676.498 324.023L679.216 321.321C680.245 320.303 681.195 319.368 682.066 318.518L684.082 316.559C684.301 316.347 684.451 316.204 684.528 316.13Z" fill="#2E186A"/>
<path fill-rule="evenodd" clip-rule="evenodd" d="M431.8 690.3C433.457 690.3 434.8 691.643 434.8 693.3C434.8 694.898 433.551 696.204 431.976 696.295L431.8 696.3H295.5C283.957 696.3 275.417 706.591 277.656 717.514L277.727 717.845L315.927 888.545C316.289 890.162 315.272 891.766 313.655 892.128C312.096 892.476 310.549 891.543 310.116 890.026L310.072 889.855L271.873 719.158C268.574 704.481 279.8 690.581 295.037 690.304L295.5 690.3H431.8Z" fill="#2E186A"/>
<path fill-rule="evenodd" clip-rule="evenodd" d="M811 647.2V769.1H774.5V689.7C763.5 701.1 753.1 710.2 743.4 717.1V768.7H706.9V734.9C695.4 737.6 685.2 737 676.4 734.1V769H639.9V703.2C638.7 700.8 637.9 698.4 637.3 696.2L616 619.6H424V891H828.5V625.9C823.1 632.6 817.3 639.7 811 647.2ZM474.4 769.1H438V642.7H474.5V769.1H474.4ZM541.4 768.8H504.9V642.5H541.4V768.8ZM609 769.1H572.5V642.7H609V769.1Z" fill="#FE7624"/>
<path fill-rule="evenodd" clip-rule="evenodd" d="M537.2 669.5C538.856 669.5 540.2 670.843 540.2 672.5C540.2 674.098 538.951 675.404 537.376 675.495L537.2 675.5H510.1C508.443 675.5 507.1 674.157 507.1 672.5C507.1 670.902 508.349 669.596 509.923 669.505L510.1 669.5H537.2Z" fill="#FE7624"/>
<path fill-rule="evenodd" clip-rule="evenodd" d="M537.2 683.5C538.856 683.5 540.2 684.843 540.2 686.5C540.2 688.098 538.951 689.404 537.376 689.495L537.2 689.5H510.1C508.443 689.5 507.1 688.157 507.1 686.5C507.1 684.902 508.349 683.596 509.923 683.505L510.1 683.5H537.2Z" fill="#FE7624"/>
<path fill-rule="evenodd" clip-rule="evenodd" d="M537.2 697.4C538.856 697.4 540.2 698.743 540.2 700.4C540.2 701.998 538.951 703.304 537.376 703.395L537.2 703.4H510.1C508.443 703.4 507.1 702.057 507.1 700.4C507.1 698.802 508.349 697.496 509.923 697.405L510.1 697.4H537.2Z" fill="#FE7624"/>
<path fill-rule="evenodd" clip-rule="evenodd" d="M604.4 727.7C606.057 727.7 607.4 729.043 607.4 730.7C607.4 732.298 606.151 733.604 604.577 733.695L604.4 733.7H577.4C575.744 733.7 574.4 732.357 574.4 730.7C574.4 729.102 575.649 727.796 577.224 727.705L577.4 727.7H604.4Z" fill="#FE7624"/>
<path fill-rule="evenodd" clip-rule="evenodd" d="M604.4 655.9C606.057 655.9 607.4 657.243 607.4 658.9C607.4 660.498 606.151 661.804 604.577 661.895L604.4 661.9H577.4C575.744 661.9 574.4 660.557 574.4 658.9C574.4 657.302 575.649 655.996 577.224 655.905L577.4 655.9H604.4Z" fill="#FE7624"/>
<path fill-rule="evenodd" clip-rule="evenodd" d="M604.4 741.6C606.057 741.6 607.4 742.943 607.4 744.6C607.4 746.198 606.151 747.504 604.577 747.595L604.4 747.6H577.4C575.744 747.6 574.4 746.257 574.4 744.6C574.4 743.002 575.649 741.696 577.224 741.605L577.4 741.6H604.4Z" fill="#FE7624"/>
<path fill-rule="evenodd" clip-rule="evenodd" d="M604.4 755.5C606.057 755.5 607.4 756.843 607.4 758.5C607.4 760.098 606.151 761.404 604.577 761.495L604.4 761.5H577.4C575.744 761.5 574.4 760.157 574.4 758.5C574.4 756.902 575.649 755.596 577.224 755.505L577.4 755.5H604.4Z" fill="#FE7624"/>
<path fill-rule="evenodd" clip-rule="evenodd" d="M806.4 727.7C808.057 727.7 809.4 729.043 809.4 730.7C809.4 732.298 808.151 733.604 806.577 733.695L806.4 733.7H779.4C777.744 733.7 776.4 732.357 776.4 730.7C776.4 729.102 777.649 727.796 779.224 727.705L779.4 727.7H806.4Z" fill="#FE7624"/>
<path fill-rule="evenodd" clip-rule="evenodd" d="M806.4 741.6C808.057 741.6 809.4 742.943 809.4 744.6C809.4 746.198 808.151 747.504 806.577 747.595L806.4 747.6H779.4C777.744 747.6 776.4 746.257 776.4 744.6C776.4 743.002 777.649 741.696 779.224 741.605L779.4 741.6H806.4Z" fill="#FE7624"/>
<path fill-rule="evenodd" clip-rule="evenodd" d="M806.4 755.5C808.057 755.5 809.4 756.843 809.4 758.5C809.4 760.098 808.151 761.404 806.577 761.495L806.4 761.5H779.4C777.744 761.5 776.4 760.157 776.4 758.5C776.4 756.902 777.649 755.596 779.224 755.505L779.4 755.5H806.4Z" fill="#FE7624"/>
<path fill-rule="evenodd" clip-rule="evenodd" d="M469.8 727.7C471.457 727.7 472.8 729.043 472.8 730.7C472.8 732.298 471.551 733.604 469.976 733.695L469.8 733.7H442.7C441.043 733.7 439.7 732.357 439.7 730.7C439.7 729.102 440.949 727.796 442.524 727.705L442.7 727.7H469.8Z" fill="#FE7624"/>
<path fill-rule="evenodd" clip-rule="evenodd" d="M469.8 655.9C471.457 655.9 472.8 657.243 472.8 658.9C472.8 660.498 471.551 661.804 469.976 661.895L469.8 661.9H442.7C441.043 661.9 439.7 660.557 439.7 658.9C439.7 657.302 440.949 655.996 442.524 655.905L442.7 655.9H469.8Z" fill="#FE7624"/>
<path fill-rule="evenodd" clip-rule="evenodd" d="M469.8 741.6C471.457 741.6 472.8 742.943 472.8 744.6C472.8 746.198 471.551 747.504 469.976 747.595L469.8 747.6H442.7C441.043 747.6 439.7 746.257 439.7 744.6C439.7 743.002 440.949 741.696 442.524 741.605L442.7 741.6H469.8Z" fill="#FE7624"/>
<path fill-rule="evenodd" clip-rule="evenodd" d="M469.8 755.5C471.457 755.5 472.8 756.843 472.8 758.5C472.8 760.098 471.551 761.404 469.976 761.495L469.8 761.5H442.7C441.043 761.5 439.7 760.157 439.7 758.5C439.7 756.902 440.949 755.596 442.524 755.505L442.7 755.5H469.8Z" fill="#FE7624"/>
<path fill-rule="evenodd" clip-rule="evenodd" d="M672 727.7C673.657 727.7 675 729.043 675 730.7C675 732.298 673.751 733.604 672.177 733.695L672 733.7H644.9C643.244 733.7 641.9 732.357 641.9 730.7C641.9 729.102 643.149 727.796 644.724 727.705L644.9 727.7H672Z" fill="#FE7624"/>
<path fill-rule="evenodd" clip-rule="evenodd" d="M672 741.6C673.657 741.6 675 742.943 675 744.6C675 746.198 673.751 747.504 672.177 747.595L672 747.6H644.9C643.244 747.6 641.9 746.257 641.9 744.6C641.9 743.002 643.149 741.696 644.724 741.605L644.9 741.6H672Z" fill="#FE7624"/>
<path fill-rule="evenodd" clip-rule="evenodd" d="M672 755.5C673.657 755.5 675 756.843 675 758.5C675 760.098 673.751 761.404 672.177 761.495L672 761.5H644.9C643.244 761.5 641.9 760.157 641.9 758.5C641.9 756.902 643.149 755.596 644.724 755.505L644.9 755.5H672Z" fill="#FE7624"/>
<rect x="541.415" y="774.086" width="11.8" height="36.5" transform="rotate(90 541.415 774.086)" fill="#2E186A"/>
<rect x="609.035" y="774.423" width="11.8" height="36.5" transform="rotate(90 609.035 774.423)" fill="#2E186A"/>
<rect x="811.036" y="774.422" width="11.8" height="36.5" transform="rotate(90 811.036 774.422)" fill="#2E186A"/>
<rect x="474.424" y="774.434" width="11.8" height="36.5" transform="rotate(90 474.424 774.434)" fill="#2E186A"/>
<rect x="676.551" y="774.408" width="11.8" height="36.5" transform="rotate(90 676.551 774.408)" fill="#2E186A"/>
<rect x="743.541" y="774.16" width="11.8" height="36.5" transform="rotate(90 743.541 774.16)" fill="#2E186A"/>
<path fill-rule="evenodd" clip-rule="evenodd" d="M522.5 828.3C513.774 828.3 506.7 835.374 506.7 844.1C506.7 852.826 513.774 859.9 522.5 859.9C531.226 859.9 538.3 852.826 538.3 844.1C538.3 835.374 531.226 828.3 522.5 828.3ZM522.5 834.3C527.913 834.3 532.3 838.688 532.3 844.1C532.3 849.512 527.913 853.9 522.5 853.9C517.088 853.9 512.7 849.512 512.7 844.1C512.7 838.688 517.088 834.3 522.5 834.3Z" fill="#2E186A"/>
<path fill-rule="evenodd" clip-rule="evenodd" d="M590.1 828.6C581.374 828.6 574.3 835.674 574.3 844.4C574.3 853.126 581.374 860.2 590.1 860.2C598.826 860.2 605.9 853.126 605.9 844.4C605.9 835.674 598.826 828.6 590.1 828.6ZM590.1 834.6C595.512 834.6 599.9 838.988 599.9 844.4C599.9 849.812 595.512 854.2 590.1 854.2C584.687 854.2 580.3 849.812 580.3 844.4C580.3 838.988 584.687 834.6 590.1 834.6Z" fill="#2E186A"/>
<path fill-rule="evenodd" clip-rule="evenodd" d="M792.1 828.6C783.374 828.6 776.3 835.674 776.3 844.4C776.3 853.126 783.374 860.2 792.1 860.2C800.826 860.2 807.9 853.126 807.9 844.4C807.9 835.674 800.826 828.6 792.1 828.6ZM792.1 834.6C797.512 834.6 801.9 838.988 801.9 844.4C801.9 849.812 797.512 854.2 792.1 854.2C786.687 854.2 782.3 849.812 782.3 844.4C782.3 838.988 786.687 834.6 792.1 834.6Z" fill="#2E186A"/>
<path fill-rule="evenodd" clip-rule="evenodd" d="M455.5 828.6C446.774 828.6 439.7 835.674 439.7 844.4C439.7 853.126 446.774 860.2 455.5 860.2C464.226 860.2 471.3 853.126 471.3 844.4C471.3 835.674 464.226 828.6 455.5 828.6ZM455.5 834.6C460.913 834.6 465.3 838.988 465.3 844.4C465.3 849.812 460.913 854.2 455.5 854.2C450.088 854.2 445.7 849.812 445.7 844.4C445.7 838.988 450.088 834.6 455.5 834.6Z" fill="#2E186A"/>
<path fill-rule="evenodd" clip-rule="evenodd" d="M657.6 828.6C648.874 828.6 641.8 835.674 641.8 844.4C641.8 853.126 648.874 860.2 657.6 860.2C666.326 860.2 673.4 853.126 673.4 844.4C673.4 835.674 666.326 828.6 657.6 828.6ZM657.6 834.6C663.012 834.6 667.4 838.988 667.4 844.4C667.4 849.812 663.012 854.2 657.6 854.2C652.187 854.2 647.8 849.812 647.8 844.4C647.8 838.988 652.187 834.6 657.6 834.6Z" fill="#2E186A"/>
<path fill-rule="evenodd" clip-rule="evenodd" d="M724.6 828.3C715.874 828.3 708.8 835.374 708.8 844.1C708.8 852.826 715.874 859.9 724.6 859.9C733.326 859.9 740.4 852.826 740.4 844.1C740.4 835.374 733.326 828.3 724.6 828.3ZM724.6 834.3C730.012 834.3 734.4 838.688 734.4 844.1C734.4 849.512 730.012 853.9 724.6 853.9C719.187 853.9 714.8 849.512 714.8 844.1C714.8 838.688 719.187 834.3 724.6 834.3Z" fill="#2E186A"/>
<path fill-rule="evenodd" clip-rule="evenodd" d="M1419.45 305.475C1422.86 305.523 1425.22 307.703 1425.76 311.29C1426.85 317.609 1417.19 330.886 1397.38 354.149C1390.94 361.687 1382.48 368.78 1372.48 375.412C1364.27 380.854 1355.5 385.686 1346.73 389.857C1343.66 391.317 1340.8 392.591 1338.24 393.672L1336.79 394.274L1334.97 395.003C1333.42 395.594 1331.69 394.817 1331.1 393.269C1330.53 391.777 1331.23 390.111 1332.67 389.465L1333.61 389.088C1334.27 388.824 1335.04 388.509 1335.91 388.144C1338.39 387.096 1341.16 385.858 1344.15 384.438C1352.68 380.381 1361.22 375.683 1369.16 370.412C1378.73 364.065 1386.78 357.318 1392.82 350.255L1395.32 347.293C1410.73 328.998 1420.2 315.815 1419.85 312.349L1419.77 311.781C1419.71 311.452 1419.67 311.479 1419.37 311.475C1418.34 311.46 1416.54 312.09 1414.23 313.34C1412.77 314.127 1410.95 313.583 1410.16 312.125C1409.37 310.668 1409.92 308.848 1411.37 308.06C1414.52 306.363 1417.15 305.443 1419.45 305.475Z" fill="#2E186A"/>
<path fill-rule="evenodd" clip-rule="evenodd" d="M1401.93 298.353L1402.33 298.101L1402.87 297.775C1410.95 293.035 1417.93 295.06 1418 304.1C1418 311.392 1385.1 362.828 1372.98 372.638C1361.69 381.712 1346.31 390.152 1326.73 397.394L1325.28 397.924L1286.77 637.641L1286.72 638.023C1284.65 652.863 1271.23 671.407 1257.04 678.489L1256.78 678.617L1256.46 678.821C1242.32 687.796 1224.83 689.74 1204.46 683.601L1203.78 683.391C1180.64 676.233 1154.19 658.845 1124.42 630.328L1120.26 626.322C1069.56 577.464 1034.64 543.339 1012.72 521.39L1008.99 517.65C1002.41 511.037 997.617 506.123 994.323 502.652L992.736 500.968C991.052 499.166 990.22 498.219 989.916 497.821C988.616 496.119 989.471 493.665 991.499 493.109L991.676 493.066L1147.18 459.966C1148.08 459.773 1149.02 460.009 1149.72 460.598L1150.02 460.868L1169.32 479.238L1178.23 487.698C1187.15 496.16 1196.08 504.607 1204.81 512.843L1209.83 517.575L1215.24 503.827C1246.31 424.975 1271.03 364.597 1276.81 355.238L1276.99 354.951C1281.14 348.645 1289.42 342.699 1300.69 337.014C1306.25 334.207 1312.19 331.648 1318.13 329.381L1319.49 328.867C1321.06 328.282 1322.52 327.755 1323.87 327.288L1325.2 326.834L1325.73 326.659L1325.92 326.539C1328.51 324.908 1332.43 322.109 1337.31 318.432L1339.47 316.799L1340.16 316.275C1343.63 313.627 1347.27 310.787 1350.87 307.946L1353.87 305.561L1355.68 304.117C1360.91 300.116 1365.16 297.74 1368.53 296.914C1372.36 295.976 1375.51 297.031 1376.98 300.026C1377.08 300.235 1377.17 300.452 1377.26 300.675L1377.37 301.018L1377.65 300.844C1379.71 299.585 1382.01 298.687 1384.44 298.154L1384.9 298.058C1389.38 297.164 1393.86 297.603 1395.97 299.436C1396.69 300.064 1397.13 300.795 1397.34 301.613L1397.39 301.799L1397.47 301.726C1398.97 300.427 1400.46 299.295 1401.93 298.353ZM1412 304.116L1412 303.881C1411.95 302.078 1411.57 301.462 1411.04 301.321C1410.03 301.057 1408.03 301.628 1405.49 303.199C1399.16 307.127 1391.83 315.64 1386.25 326.2C1386.02 326.634 1385.7 326.989 1385.33 327.253L1385.23 327.32L1384.91 327.884C1384.04 329.404 1383.06 330.975 1381.96 332.593C1379.77 335.806 1377.17 339.168 1374.23 342.629C1371.06 346.366 1367.68 350.022 1364.29 353.452L1363.41 354.33C1362.7 355.045 1362.02 355.713 1361.38 356.33L1360.42 357.255L1359.74 357.898C1358.53 359.026 1356.63 358.955 1355.5 357.741C1354.37 356.527 1354.44 354.629 1355.66 353.502L1356.46 352.743L1357.58 351.659C1358.34 350.919 1359.16 350.108 1360.02 349.234C1363.31 345.906 1366.6 342.358 1369.66 338.747C1372.47 335.439 1374.94 332.241 1376.99 329.221C1378.01 327.728 1378.91 326.29 1379.69 324.93L1380.72 323.12C1383.18 318.84 1388.2 310.232 1389.25 308.249L1389.63 307.537C1390.4 306.047 1390.93 304.888 1391.22 304.022L1391.3 303.789L1391.23 303.775C1391.08 303.747 1390.92 303.721 1390.74 303.7L1390.48 303.67C1389.19 303.544 1387.64 303.629 1386.07 303.942C1382.42 304.67 1379.24 306.462 1377.17 309.221L1377.1 309.321L1376.99 309.551C1376.59 310.41 1376.12 311.29 1375.6 312.189L1375.32 312.674L1375.2 312.897C1374.55 314.158 1373.79 315.399 1372.93 316.583L1372.7 316.904C1365.63 326.292 1350.31 341.802 1346.61 343.125C1343.5 344.237 1341.18 340.261 1343.56 338.096L1343.73 337.952L1344.96 336.914L1345.75 336.234C1346.56 335.531 1347.44 334.76 1348.36 333.93C1351.89 330.768 1355.41 327.396 1358.69 323.963C1361.74 320.772 1364.42 317.687 1366.63 314.778C1367.85 313.18 1368.91 311.652 1369.8 310.208L1369.96 309.937L1369.99 309.892C1371.48 306.908 1372.13 304.025 1371.65 302.788L1371.58 302.632L1371.56 302.627C1371.3 302.539 1370.77 302.544 1369.96 302.742C1367.55 303.333 1363.96 305.341 1359.38 308.837L1356.16 311.408C1355.65 311.809 1355.13 312.225 1354.59 312.654L1351.87 314.796C1349.6 316.576 1347.33 318.337 1345.12 320.035L1343.1 321.574L1340.89 323.251C1335.55 327.263 1331.34 330.261 1328.57 331.959C1328.36 332.084 1328.14 332.184 1327.91 332.257L1327.39 332.431C1327.03 332.549 1326.63 332.685 1326.18 332.839L1325.84 332.957C1324.16 333.538 1322.29 334.217 1320.27 334.987C1314.51 337.185 1308.75 339.666 1303.39 342.371C1292.99 347.617 1285.42 353.053 1282.02 358.236C1276.56 366.615 1247.94 436.886 1213.79 523.896C1213.02 525.873 1210.49 526.44 1208.94 524.984L1200.9 517.404C1190.09 507.207 1178.97 496.683 1167.94 486.206L1146.88 466.164L998.035 497.846L1000.25 500.171C1003.31 503.366 1007.43 507.572 1012.76 512.93L1016.27 516.457C1038.35 538.576 1073.95 573.373 1126.05 623.566L1127.68 625.14C1157.19 653.573 1183.19 670.742 1205.55 677.659C1224.79 683.612 1240.83 681.818 1253.67 673.484C1253.77 673.415 1253.88 673.353 1254 673.298C1266.53 667.256 1278.94 650.222 1280.77 637.239L1280.84 636.724L1319.64 395.224C1319.81 394.142 1320.56 393.24 1321.6 392.873C1342.07 385.601 1357.89 377.071 1369.21 367.968C1374.67 363.554 1384.38 350.655 1394.69 334.646L1395.44 333.484C1399.82 326.636 1403.92 319.805 1407 314.25L1407.36 313.615C1408.89 310.836 1410.1 308.479 1410.93 306.69L1411.18 306.13C1411.46 305.505 1411.67 304.975 1411.82 304.552L1411.97 304.13C1411.98 304.08 1412 304.064 1412 304.093L1412 304.116Z" fill="#2E186A"/>
<path fill-rule="evenodd" clip-rule="evenodd" d="M1212.42 520.113C1213.79 520.92 1214.29 522.655 1213.58 524.058L1212.99 525.09C1212.85 525.334 1212.7 525.601 1212.54 525.891L1212.02 526.848C1211.48 527.836 1210.91 528.919 1210.3 530.089L1210 530.681C1207.35 535.83 1204.71 541.499 1202.24 547.511C1197.19 559.826 1193.55 571.932 1191.94 583.196C1189.8 598.12 1191.37 610.627 1197.24 620.008C1198.12 621.412 1197.7 623.264 1196.29 624.143C1194.89 625.022 1193.04 624.596 1192.16 623.192C1185.42 612.429 1183.68 598.549 1186 582.346C1187.69 570.53 1191.47 557.971 1196.69 545.234C1199.23 539.055 1201.94 533.234 1204.66 527.941L1205.28 526.734C1205.9 525.556 1206.48 524.468 1207.02 523.476L1207.9 521.894L1208.31 521.181C1209.15 519.753 1210.99 519.274 1212.42 520.113Z" fill="#2E186A"/>
<path fill-rule="evenodd" clip-rule="evenodd" d="M464.937 382.063C467.2 381.7 469.892 382.251 473.095 383.507C474.638 384.112 475.398 385.853 474.793 387.395C474.188 388.938 472.447 389.698 470.905 389.093C468.723 388.237 467.017 387.869 466.031 387.969L465.888 387.987C465.517 388.047 465.532 388.029 465.496 388.852C465.318 392.357 477.84 406.024 496.641 423.502C503.012 429.417 511.102 434.868 520.512 439.831C529.288 444.46 538.712 448.415 548.139 451.693C551.164 452.745 553.99 453.656 556.554 454.427L557.247 454.634C557.931 454.837 558.559 455.018 559.128 455.179L560.649 455.595C562.253 456.009 563.219 457.645 562.805 459.249C562.406 460.796 560.871 461.749 559.323 461.444L558.893 461.337L558.186 461.145C557.421 460.934 556.537 460.681 555.542 460.387C552.711 459.548 549.56 458.539 546.168 457.36C536.476 453.99 526.781 449.921 517.712 445.138C507.871 439.946 499.356 434.21 492.557 427.897L490.629 426.099C470.136 406.938 459.186 394.789 459.503 388.57C459.658 384.992 461.68 382.586 464.937 382.063Z" fill="#2E186A"/>
<path fill-rule="evenodd" clip-rule="evenodd" d="M569.286 463.209L568.902 463.117C547.891 458.021 531.103 451.246 519.082 443.526C505.871 435.06 467.337 387.718 466.617 380.516C465.646 371.364 472.683 368.625 481.516 372.786C483.076 373.521 484.684 374.442 486.317 375.533L486.682 375.779L486.713 375.583C486.84 374.899 487.133 374.256 487.626 373.66L487.78 373.482C489.643 371.434 494.052 370.486 498.596 370.86C501.145 371.07 503.602 371.675 505.851 372.689L506.389 372.942L506.399 372.892C506.45 372.626 506.515 372.367 506.595 372.116L506.679 371.868C507.812 368.734 510.825 367.339 514.733 367.838C518.176 368.278 522.675 370.151 528.403 373.564L530.767 375.047C531.61 375.574 532.517 376.139 533.477 376.733L536.775 378.769C539.526 380.459 542.271 382.126 544.923 383.711L547.562 385.279C553.141 388.572 557.583 391.051 560.449 392.435L560.649 392.53L562.268 392.876L562.651 392.96C564.511 393.373 566.582 393.865 568.81 394.435C575.183 396.065 581.558 397.998 587.526 400.233C598.995 404.529 607.603 409.405 612.297 415.07C618.679 422.663 648.381 476.773 691.294 557.369L697.468 568.975L707.142 557.495C713.248 550.242 719.437 542.877 725.622 535.505L741.741 516.269L750.597 505.677C751.191 504.967 752.076 504.573 752.994 504.601L753.191 504.614L911.391 520.014C913.581 520.227 914.804 522.647 913.677 524.537L913.464 524.871C913.102 525.421 912.406 526.401 911.232 527.986L910.67 528.741C907.793 532.596 903.341 538.356 896.982 546.401L892.455 552.107C872.674 576.971 841.326 615.454 795.913 670.411C769.224 702.695 744.654 723.275 722.281 733.097C702.514 741.775 684.725 741.91 669.474 734.536L669.131 734.368L668.854 734.269C653.918 728.821 638.481 711.928 634.792 697.44L634.711 697.108L569.286 463.209ZM472.562 379.659L472.584 379.873C472.588 379.815 472.66 380.006 472.804 380.307C473.025 380.766 473.348 381.354 473.764 382.056L473.925 382.324C474.941 384.006 476.411 386.207 478.246 388.794L479.095 389.983C482.431 394.62 486.654 400.13 491.158 405.711L492.339 407.169C504.705 422.361 516.25 434.585 522.321 438.476C534.13 446.059 551.012 452.777 572.384 457.779C573.387 458.014 574.194 458.745 574.532 459.708L574.589 459.892L640.489 695.492L640.518 695.603C643.559 708.336 657.978 724.118 671.29 728.768C671.407 728.809 671.522 728.857 671.634 728.913C685.352 735.721 701.461 735.685 719.869 727.603C741.058 718.301 764.671 698.608 790.504 667.534L805.299 649.614C843.212 603.632 870.104 570.563 887.756 548.376L892.701 542.14C897.666 535.854 901.429 531.01 904.154 527.42L905.616 525.479L754.187 510.739L737.962 530.127L728.179 541.792C718.388 553.458 708.612 565.077 699.193 576.235C697.823 577.858 695.247 577.583 694.251 575.707L686.015 560.222C643.767 480.882 613.657 426.014 607.69 418.914C603.826 414.25 595.984 409.808 585.422 405.852C579.677 403.701 573.502 401.828 567.324 400.248C565.16 399.694 563.151 399.217 561.351 398.818L559.986 398.522L559.122 398.344C558.884 398.297 558.652 398.221 558.432 398.119C555.279 396.648 550.309 393.878 543.954 390.116L541.845 388.861C538.636 386.944 535.296 384.91 531.974 382.859L528.105 380.458L525.265 378.678C520.249 375.69 516.443 374.105 513.973 373.79C512.617 373.617 512.388 373.722 512.322 373.907C511.87 375.158 512.916 378.173 514.904 381.149L515.072 381.398L515.253 381.624C515.609 382.065 515.983 382.513 516.376 382.967L516.775 383.423C519.477 386.48 522.918 389.742 526.922 393.117C530.663 396.271 534.682 399.347 538.702 402.216L539.738 402.95C540.415 403.427 541.065 403.879 541.683 404.303L543.052 405.233L544.033 405.883C546.817 407.69 545.042 412.01 541.792 411.338C537.933 410.539 520.979 396.83 512.803 388.142C511.899 387.17 511.062 386.14 510.31 385.079L510.126 384.817L509.767 384.353C509.006 383.358 508.325 382.382 507.725 381.426L507.584 381.198L507.486 381.088C505.246 378.655 502.055 377.248 498.501 376.877L498.104 376.84C496.513 376.709 494.963 376.802 493.699 377.074C493.521 377.112 493.353 377.153 493.195 377.196L492.955 377.267C493.335 378.112 494.013 379.26 495.02 380.76L495.472 381.425C496.96 383.588 504.914 394.275 506.83 396.94C507.362 397.675 507.937 398.426 508.553 399.193C511.049 402.299 514.173 405.607 517.78 409.029C521.3 412.368 525.081 415.632 528.863 418.682C529.856 419.482 530.795 420.224 531.667 420.901L532.955 421.89L533.877 422.583C535.212 423.564 535.499 425.442 534.517 426.777C533.536 428.112 531.658 428.398 530.323 427.417L529.541 426.831L528.868 426.319C527.729 425.447 526.461 424.453 525.097 423.352C521.198 420.209 517.298 416.842 513.65 413.381C509.862 409.787 506.558 406.29 503.875 402.951C503.368 402.319 502.883 401.693 502.42 401.072L501.396 399.669L501.359 399.644C501.123 399.476 500.908 399.271 500.723 399.031L500.616 398.882C493.93 389.01 485.7 381.389 478.959 378.214C476.267 376.946 474.211 376.61 473.237 376.989C472.711 377.194 472.401 377.853 472.562 379.659Z" fill="#2E186A"/>
<path fill-rule="evenodd" clip-rule="evenodd" d="M695.099 571.8C696.424 570.806 698.305 571.074 699.299 572.399L699.675 572.91C699.972 573.316 700.314 573.791 700.698 574.334L701.368 575.288C702.281 576.597 703.268 578.052 704.314 579.641C708.045 585.31 711.775 591.533 715.259 598.125C722.097 611.065 727.138 623.805 729.624 635.814C732.465 649.541 731.828 661.724 727.01 671.885C726.301 673.382 724.511 674.021 723.014 673.311C721.517 672.601 720.879 670.812 721.589 669.315C725.777 660.482 726.347 649.583 723.748 637.03C721.392 625.649 716.55 613.409 709.954 600.928C706.566 594.517 702.934 588.456 699.302 582.94L698.47 581.685C697.652 580.462 696.878 579.333 696.157 578.306L695.381 577.21L694.5 576.001C693.506 574.675 693.774 572.795 695.099 571.8Z" fill="#2E186A"/>
<path fill-rule="evenodd" clip-rule="evenodd" d="M1197.4 505.4C1197.4 505.4 1130.6 432.1 1079.3 416.4C1061.6 411 1027.4 411.1 989 414.1L989.3 415.5L1017.3 414.2C1008.6 450.3 973 491.1 909.7 497.6C846.5 504.1 850.7 439.5 859.3 434.1L879.7 428.9V428.6C849.7 434.1 824.6 440 811.5 445C768 461.5 727.2 532.8 727.2 532.8L778.7 596C778.7 596 777.2 594.3 776.6 637.4C776 680.5 813.7 712.5 813.7 712.5L791.3 891.4L1141.7 889L1099.5 612.6L1197.4 505.4Z" fill="#2E186A"/>
<path fill-rule="evenodd" clip-rule="evenodd" d="M971.487 330.363C973.051 330.037 974.585 330.993 974.996 332.515L975.037 332.687L991.714 412.584L1017.16 411.403C1019.1 411.313 1020.59 413.051 1020.25 414.928L1020.22 415.105C1015.47 434.748 1003.45 454.21 985.903 469.429C966.113 486.595 940.326 497.666 910.007 500.784C880.683 503.8 862.232 492.247 854.753 471.492C849.189 456.054 851.042 435.865 857.726 431.746C857.92 431.627 858.126 431.53 858.341 431.457L858.559 431.393L876.492 426.821L874.111 399.258C873.974 397.666 875.106 396.258 876.667 396.031L876.842 396.011C878.434 395.874 879.842 397.006 880.069 398.567L880.089 398.742L882.689 428.842C882.81 430.244 881.941 431.532 880.616 431.957L880.441 432.007L860.654 437.051L860.608 437.103C860.257 437.519 859.779 438.366 859.324 439.569L859.227 439.832C858.484 441.898 857.926 444.608 857.647 447.646C857.002 454.674 857.885 462.488 860.397 469.458C866.941 487.615 882.807 497.55 909.393 494.816C938.491 491.823 963.118 481.25 981.972 464.896C997.29 451.609 1008.13 434.951 1013.22 417.998L1013.34 417.586L989.439 418.697C988.029 418.762 986.773 417.837 986.406 416.491L986.363 416.313L969.163 333.913C968.825 332.291 969.865 330.702 971.487 330.363Z" fill="#2E186A"/>
<path fill-rule="evenodd" clip-rule="evenodd" d="M981.266 228.219C992.931 226.908 1003.54 227.725 1012.19 231.586C1023.61 236.687 1030.46 246.704 1031.39 262.012C1032.78 284.186 1022.76 297.366 1005.54 302.963C997.53 305.564 989.197 306.186 981.962 305.715L981.279 305.666C980.871 305.634 980.56 305.604 980.353 305.58C978.707 305.388 977.529 303.898 977.721 302.253C977.906 300.666 979.297 299.513 980.872 299.605L981.465 299.661C981.649 299.677 981.875 299.695 982.143 299.714L982.352 299.728C988.894 300.154 996.517 299.585 1003.68 297.256C1018.42 292.468 1026.62 281.689 1025.41 262.384C1024.6 249.287 1019.11 241.249 1009.74 237.064C1002.25 233.719 992.634 232.979 981.935 234.181C980.289 234.366 978.804 233.181 978.619 231.535C978.434 229.888 979.619 228.404 981.266 228.219Z" fill="#2E186A"/>
<path fill-rule="evenodd" clip-rule="evenodd" d="M860.673 149.791C836.743 151.009 818.793 158.622 806.149 175.968C791.057 196.673 784.779 230.394 788.396 280.02L788.508 281.527C789.845 299.161 796.843 326.921 807.941 349.117C824.33 381.894 847.932 401.225 879.431 400.9C912.507 400.558 940.441 384.999 960.147 358.02C978.174 333.339 988.107 300.453 987.9 267.481C987.492 202.85 952.474 152.125 907.435 151.6L905.571 151.564C903.347 151.507 901.171 151.393 897.4 151.137L887.084 150.405C875.513 149.604 868.519 149.391 860.673 149.791ZM886.703 156.393L896.354 157.08C901.728 157.449 904.064 157.554 907.358 157.6C948.57 158.08 981.511 205.795 981.9 267.519C982.1 299.243 972.546 330.872 955.302 354.481C936.672 379.986 910.474 394.579 879.369 394.9C850.548 395.198 828.773 377.363 813.308 346.433C802.718 325.254 795.948 298.663 794.543 281.726L794.491 281.071C790.734 231.91 796.74 199.063 810.997 179.503C822.313 163.979 838.364 157.06 860.291 155.82L860.978 155.783C868.531 155.399 875.343 155.607 886.703 156.393Z" fill="#2E186A"/>
<rect x="981.289" y="70.8477" width="24.3" height="42.9" transform="rotate(19.1959 981.289 70.8477)" fill="#FE7624"/>
<path fill-rule="evenodd" clip-rule="evenodd" d="M1006.4 86.3C1030.09 86.3 1049.3 67.093 1049.3 43.4C1049.3 19.707 1030.09 0.5 1006.4 0.5C982.707 0.5 963.5 19.707 963.5 43.4C963.5 67.093 982.707 86.3 1006.4 86.3Z" fill="#2E186A"/>
<path fill-rule="evenodd" clip-rule="evenodd" d="M969.1 97.9C931 85.8 890.1 80.2 854.1 94.5C745 143.8 744.8 226.1 790.6 263.5V263.5C788.9 205.2 803.1 177 823.1 163.7C845 198.6 915.7 228.8 980.4 229.5C980.5 230.1 980.7 230.7 980.8 231.2C998.6 229 1026.5 230.6 1028.4 262.1C1031.1 305.5 986.9 303.1 981.3 302.6C980.6 306 971.5 337.1 971.5 337.1L981.3 381.6L1125.2 359.2C1133.9 359 1139.9 350.4 1137.1 342.2C1119.8 290.7 1091.6 138.5 969.1 97.9Z" fill="#2E186A"/>
<path fill-rule="evenodd" clip-rule="evenodd" d="M888.644 327.004L888.254 327.026C887.946 327.045 887.59 327.067 887.19 327.095L886.183 327.167C885.319 327.231 884.395 327.307 883.421 327.395C879.519 327.747 875.616 328.218 871.956 328.828C867.167 329.627 863.149 330.603 860.104 331.809C855.739 333.538 853.1 335.794 853.1 339.2C853.1 345.174 861.771 350.309 870.46 350.425C880.942 350.564 889.156 343.862 891.744 330.574C892.117 328.659 890.592 326.903 888.644 327.004ZM884.851 333.293L884.782 333.498C882.177 341.088 877.049 344.512 870.539 344.425C867.485 344.385 864.375 343.503 862.006 342.1L861.772 341.958C860.167 340.962 859.265 339.918 859.12 339.349L859.109 339.29L859.154 339.229C859.22 339.148 859.318 339.048 859.454 338.932C860.028 338.441 860.999 337.908 862.314 337.388C864.889 336.368 868.536 335.481 872.943 334.747C876.437 334.164 880.197 333.71 883.96 333.371L884.851 333.293Z" fill="#2E186A"/>
<path fill-rule="evenodd" clip-rule="evenodd" d="M844.256 227.504C845.851 227.587 847.091 228.901 847.1 230.479L847.096 230.655L843.079 308.2L859.746 306.221C861.333 306.032 862.777 307.119 863.054 308.672L863.079 308.846C863.268 310.433 862.182 311.877 860.629 312.153L860.454 312.179L840.254 314.579C838.467 314.791 836.912 313.397 836.9 311.623L836.904 311.445L841.104 230.345C841.187 228.749 842.502 227.51 844.079 227.5L844.256 227.504Z" fill="#2E186A"/>
<path fill-rule="evenodd" clip-rule="evenodd" d="M800.625 234.116C804.078 233.517 807.668 233.827 811.14 234.696C812.471 235.028 813.491 235.367 814.108 235.612C815.647 236.224 816.4 237.968 815.788 239.508C815.198 240.993 813.555 241.745 812.057 241.248L811.603 241.083C811.532 241.058 811.449 241.03 811.356 240.999C810.865 240.836 810.303 240.671 809.685 240.516C806.956 239.834 804.16 239.592 801.65 240.028C798.297 240.61 795.797 242.331 794.196 245.615C793.47 247.104 791.674 247.723 790.185 246.997C788.696 246.27 788.077 244.474 788.803 242.985C791.292 237.88 795.456 235.013 800.625 234.116Z" fill="#2E186A"/>
<path fill-rule="evenodd" clip-rule="evenodd" d="M877.747 227.551C879.376 227.246 880.944 228.319 881.249 229.947C882.227 235.163 886.167 238.183 892.566 239.523C896.302 240.306 900.35 240.4 904.04 240.084L904.619 240.03L905.125 239.975C905.303 239.954 905.419 239.939 905.466 239.932C907.105 239.692 908.629 240.826 908.869 242.466C909.109 244.105 907.974 245.628 906.335 245.868L905.898 245.926C905.552 245.968 905.1 246.016 904.552 246.062C900.329 246.424 895.733 246.317 891.336 245.396C882.799 243.608 876.851 239.049 875.352 231.053C875.046 229.424 876.119 227.857 877.747 227.551Z" fill="#2E186A"/>
<path fill-rule="evenodd" clip-rule="evenodd" d="M896.123 270.252C899.779 269.683 902.027 264.621 901.143 258.945C900.259 253.27 896.578 249.131 892.922 249.7C889.266 250.269 887.018 255.332 887.902 261.007C888.786 266.683 892.467 270.822 896.123 270.252Z" fill="#2E186A"/>
<path fill-rule="evenodd" clip-rule="evenodd" d="M821.714 283.543C825.37 282.974 827.618 277.911 826.734 272.236C825.85 266.56 822.169 262.421 818.513 262.991C814.857 263.56 812.609 268.623 813.493 274.298C814.377 279.973 818.058 284.113 821.714 283.543Z" fill="#2E186A"/>
<path fill-rule="evenodd" clip-rule="evenodd" d="M897.994 187.482C872.833 191.294 856.81 220.727 861.694 252.957C866.577 285.187 890.6 308.554 915.76 304.741C940.921 300.929 956.944 271.495 952.061 239.266C947.178 207.036 923.155 183.669 897.994 187.482ZM898.893 193.414C920.364 190.161 941.696 210.91 946.129 240.164C950.561 269.419 936.333 295.556 914.862 298.809C893.39 302.062 872.058 281.313 867.626 252.059C863.193 222.804 877.422 196.667 898.893 193.414Z" fill="#FE7624"/>
<path fill-rule="evenodd" clip-rule="evenodd" d="M782.504 208.084C757.343 211.896 741.32 241.33 746.203 273.56C751.087 305.79 775.109 329.156 800.27 325.344C825.431 321.532 841.454 292.098 836.571 259.868C831.687 227.638 807.665 204.272 782.504 208.084ZM783.403 214.016C804.874 210.763 826.206 231.512 830.638 260.767C835.071 290.022 820.843 316.159 799.371 319.412C777.9 322.665 756.568 301.916 752.136 272.661C747.703 243.406 761.931 217.27 783.403 214.016Z" fill="#FE7624"/>
<path fill-rule="evenodd" clip-rule="evenodd" d="M862.987 243.744C864.62 243.461 866.173 244.555 866.456 246.187C866.729 247.761 865.722 249.262 864.186 249.621L864.013 249.656L832.313 255.156C830.681 255.439 829.128 254.345 828.844 252.713C828.571 251.139 829.579 249.638 831.115 249.279L831.287 249.244L862.987 243.744Z" fill="#FE7624"/>
<path fill-rule="evenodd" clip-rule="evenodd" d="M948.994 225.606L989.094 228.206C990.747 228.313 992.001 229.741 991.894 231.394C991.79 232.988 990.459 234.211 988.882 234.2L988.706 234.194L948.606 231.594C946.952 231.487 945.699 230.059 945.806 228.406C945.91 226.812 947.24 225.589 948.818 225.6L948.994 225.606Z" fill="#FE7624"/>
<path fill-rule="evenodd" clip-rule="evenodd" d="M1506.6 887C1508.26 887 1509.6 888.343 1509.6 890C1509.6 891.598 1508.35 892.904 1506.78 892.995L1506.6 893H5.2998C3.64295 893 2.2998 891.657 2.2998 890C2.2998 888.402 3.54872 887.096 5.12353 887.005L5.2998 887H1506.6Z" fill="#2E186A"/>
</svg>
